<svg width="24" height="24" viewBox="0 0 24 24" fill="none" xmlns="http://www.w3.org/2000/svg">
<path fill-rule="evenodd" clip-rule="evenodd" d="M11.5983 5.75666C11.8912 6.04955 11.8912 6.52442 11.5983 6.81732L7.16564 11.25H18.669C19.0832 11.25 19.419 11.5858 19.419 12C19.419 12.4142 19.0832 12.75 18.669 12.75H7.16564L11.5983 17.1827C11.8912 17.4755 11.8912 17.9504 11.5983 18.2433C11.3054 18.5362 10.8305 18.5362 10.5377 18.2433L4.82465 12.5303C4.684 12.3897 4.60498 12.1989 4.60498 12C4.60498 11.8011 4.684 11.6103 4.82465 11.4697L10.5377 5.75666C10.8305 5.46376 11.3054 5.46376 11.5983 5.75666Z" fill="#A7A5A5"/>
</svg>
