<svg width="18" height="18" viewBox="0 0 18 18" fill="none" xmlns="http://www.w3.org/2000/svg">
<path fill-rule="evenodd" clip-rule="evenodd" d="M4.6027 4.58679C4.82235 4.3671 5.17851 4.36706 5.3982 4.58671L9.00024 8.18808L12.6023 4.58671C12.822 4.36706 13.1781 4.3671 13.3978 4.58679C13.6174 4.80648 13.6174 5.16263 13.3977 5.38228L9.79581 8.9835L13.3977 12.5847C13.6174 12.8044 13.6174 13.1605 13.3978 13.3802C13.1781 13.5999 12.822 13.5999 12.6023 13.3803L9.00024 9.77892L5.3982 13.3803C5.17851 13.5999 4.82235 13.5999 4.6027 13.3802C4.38305 13.1605 4.38309 12.8044 4.60278 12.5847L8.20467 8.9835L4.60278 5.38228C4.38309 5.16263 4.38305 4.80648 4.6027 4.58679Z" fill="#A7A5A5"/>
</svg>
