<svg width="20" height="20" viewBox="0 0 20 20" fill="none" xmlns="http://www.w3.org/2000/svg">
<path fill-rule="evenodd" clip-rule="evenodd" d="M5.75778 4.54545C5.08817 4.54545 4.54551 5.08816 4.54551 5.75783V6.97012C4.54551 7.63979 5.08817 8.18251 5.75778 8.18251H6.96996C7.63957 8.18251 8.18223 7.63979 8.18223 6.97012V5.75783C8.18223 5.08816 7.63957 4.54545 6.96996 4.54545H5.75778ZM3.3335 5.75783C3.3335 4.41873 4.4188 3.33333 5.75778 3.33333H6.96996C8.30894 3.33333 9.39424 4.41873 9.39424 5.75783V6.97012C9.39424 8.30923 8.30894 9.39463 6.96996 9.39463H5.75778C4.4188 9.39463 3.3335 8.30923 3.3335 6.97012V5.75783ZM13.0304 4.54545C12.3608 4.54545 11.8181 5.08816 11.8181 5.75783V6.97012C11.8181 7.63979 12.3608 8.18251 13.0304 8.18251H14.2425C14.9122 8.18251 15.4548 7.63979 15.4548 6.97012V5.75783C15.4548 5.08816 14.9122 4.54545 14.2425 4.54545H13.0304ZM10.6061 5.75783C10.6061 4.41873 11.6914 3.33333 13.0304 3.33333H14.2425C15.5815 3.33333 16.6668 4.41873 16.6668 5.75783V6.97012C16.6668 8.30923 15.5815 9.39463 14.2425 9.39463H13.0304C11.6914 9.39463 10.6061 8.30923 10.6061 6.97012V5.75783ZM5.75778 11.8175C5.08817 11.8175 4.54551 12.3602 4.54551 13.0299V14.2422C4.54551 14.9118 5.08817 15.4545 5.75778 15.4545H6.96996C7.63957 15.4545 8.18223 14.9118 8.18223 14.2422V13.0299C8.18223 12.3602 7.63957 11.8175 6.96996 11.8175H5.75778ZM3.3335 13.0299C3.3335 11.6908 4.4188 10.6054 5.75778 10.6054H6.96996C8.30894 10.6054 9.39424 11.6908 9.39424 13.0299V14.2422C9.39424 15.5813 8.30894 16.6667 6.96996 16.6667H5.75778C4.4188 16.6667 3.3335 15.5813 3.3335 14.2422V13.0299ZM13.0304 11.8175C12.3608 11.8175 11.8181 12.3602 11.8181 13.0299V14.2422C11.8181 14.9118 12.3608 15.4545 13.0304 15.4545H14.2425C14.9122 15.4545 15.4548 14.9118 15.4548 14.2422V13.0299C15.4548 12.3602 14.9122 11.8175 14.2425 11.8175H13.0304ZM10.6061 13.0299C10.6061 11.6908 11.6914 10.6054 13.0304 10.6054H14.2425C15.5815 10.6054 16.6668 11.6908 16.6668 13.0299V14.2422C16.6668 15.5813 15.5815 16.6667 14.2425 16.6667H13.0304C11.6914 16.6667 10.6061 15.5813 10.6061 14.2422V13.0299Z" fill="#FC8507"/>
</svg>
